<svg id="Layer_1" enable-background="new 0 0 100 100" height="512" viewBox="0 0 100 100" width="512" xmlns="http://www.w3.org/2000/svg"><g><path d="m55.586 29.215c.015.056.025.113.04.169-1.378-5.369-4.057-10.487-8.072-14.854-7.222 7.868-10.076 18.225-8.645 28.123 2.204.856 3.99 2.603 5.774 4.346 1.053 1.029 5.38.085 6.684-.599 2.33-1.221 12.077-5.332 15.654-4.533 7.592-5.87 12.653-14.776 13.204-24.858-9.884.524-18.677 5.165-24.639 12.206z" fill="#5eb95e"/><path d="m28.753 68.492c-13.231-3.092-18.178-19.86-8.272-29.358 7.537-7.559 20.852-6.59 27.113 1.909.735.731.234 1.004-.095 1.783-.708 1.49-1.197 3.072-1.544 4.683-1.191.226-2.34.561-3.452.973-1.784.659-3.479 1.56-5.022 2.668-5.53 3.904-8.938 10.565-8.728 17.342zm39.158.755c-.681 9.006-8.445 16.235-17.911 16.221-12.878.253-21.982-13.743-16.236-25.016 2.886-6.036 9.318-10.043 16.236-10.054 10.362-.037 18.774 8.724 17.911 18.849zm3.336-.755c.34-11.678-9.33-21.387-21.247-21.372-1.757.384 1.991-5.795 2.676-6.448 6.38-8.166 19.489-8.921 26.843-1.539 9.903 9.496 4.962 26.269-8.272 29.359z" fill="#a254a5"/><g fill="#594a42"><path d="m50.338 61.164c-2.896 0-5.23-.629-5.377-.669-.799-.22-1.269-1.045-1.049-1.844s1.046-1.269 1.842-1.05c.048.014 4.668 1.246 8.422.021.789-.259 1.635.175 1.891.961.257.787-.173 1.634-.961 1.891-1.587.518-3.254.69-4.768.69z"/><path d="m73.986 50.894c-.221 0-.445-.049-.657-.152-4.368-2.135-7.093-6.817-7.206-7.016-.412-.719-.164-1.636.554-2.048.716-.414 1.634-.166 2.047.553.033.056 2.4 4.095 5.922 5.815.745.363 1.053 1.262.689 2.006-.26.532-.795.842-1.349.842z"/><path d="m26.014 50.894c-.529 0-1.043-.281-1.316-.779-.398-.726-.132-1.637.594-2.035.085-.048 4.198-2.359 5.949-5.783.378-.739 1.287-1.028 2.019-.653.738.378 1.03 1.281.653 2.019-2.188 4.275-6.976 6.937-7.179 7.048-.229.123-.476.183-.72.183z"/></g></g></svg>