<?xml version="1.0" encoding="iso-8859-1"?>
<!-- Generator: Adobe Illustrator 19.0.0, SVG Export Plug-In . SVG Version: 6.00 Build 0)  -->
<svg version="1.1" id="Capa_1" xmlns="http://www.w3.org/2000/svg" xmlns:xlink="http://www.w3.org/1999/xlink" x="0px" y="0px"
	 viewBox="0 0 511 511" style="enable-background:new 0 0 511 511;" xml:space="preserve">
<g>
	<path d="M495.5,116h-480C6.953,116,0,122.953,0,131.5v40c0,82.602,51.22,156.782,128,186.26v13.74c0,12.958,10.542,23.5,23.5,23.5
		h208c12.958,0,23.5-10.542,23.5-23.5v-13.74c76.78-29.478,128-103.658,128-186.26v-40C511,122.953,504.047,116,495.5,116z
		 M359.5,380h-208c-4.687,0-8.5-3.813-8.5-8.5V363h225v8.5C368,376.187,364.187,380,359.5,380z M496,171.5
		c0,78.04-49.43,147.949-123,173.96c-1.412,0.499-2.592,1.402-3.457,2.54H141.457c-0.865-1.138-2.045-2.04-3.457-2.54
		C64.43,319.449,15,249.54,15,171.5v-40c0-0.276,0.224-0.5,0.5-0.5h480c0.276,0,0.5,0.224,0.5,0.5V171.5z"/>
	<path d="M63.347,240.093c-2.495-4.944-4.744-10.075-6.683-15.252c-1.453-3.879-5.775-5.846-9.654-4.393
		c-3.879,1.453-5.846,5.775-4.393,9.654c2.13,5.686,4.599,11.321,7.339,16.75c1.319,2.614,3.96,4.122,6.701,4.122
		c1.136,0,2.29-0.259,3.374-0.806C63.729,248.302,65.213,243.791,63.347,240.093z"/>
	<path d="M471.5,148c-4.142,0-7.5,3.358-7.5,7.5v16c0,4.142,3.358,7.5,7.5,7.5s7.5-3.358,7.5-7.5v-16
		C479,151.358,475.642,148,471.5,148z"/>
	<path d="M148.667,315.291c-28.434-10.053-53.05-28.174-71.188-52.405c-2.482-3.317-7.183-3.992-10.499-1.51
		c-3.316,2.482-3.992,7.183-1.51,10.499c19.919,26.612,46.959,46.515,78.196,57.56c0.827,0.292,1.67,0.431,2.5,0.431
		c3.089,0,5.983-1.923,7.071-5.002C154.619,320.957,152.572,316.671,148.667,315.291z"/>
	<path d="M469.765,196.153c-4.06-0.832-8.021,1.784-8.853,5.843c-6.604,32.245-23.862,62.038-48.596,83.89
		c-3.104,2.743-3.397,7.482-0.655,10.586c1.482,1.678,3.548,2.534,5.624,2.534c1.764,0,3.537-0.619,4.963-1.879
		c27.157-23.993,46.107-56.709,53.36-92.122C476.439,200.948,473.823,196.984,469.765,196.153z"/>
</g>
<g>
</g>
<g>
</g>
<g>
</g>
<g>
</g>
<g>
</g>
<g>
</g>
<g>
</g>
<g>
</g>
<g>
</g>
<g>
</g>
<g>
</g>
<g>
</g>
<g>
</g>
<g>
</g>
<g>
</g>
</svg>
