<svg height="512pt" viewBox="-49 0 512 512" width="512pt" xmlns="http://www.w3.org/2000/svg"><path d="m383.625 0h-353.792969c-16.449219 0-29.832031 13.382812-29.832031 29.832031v2.746094c0 16.449219 13.382812 29.832031 29.832031 29.832031h.46875l68.449219 441.121094c.757812 4.875 4.949219 8.46875 9.882812 8.46875h196.191407c4.933593 0 9.125-3.59375 9.882812-8.46875l68.449219-441.121094h.46875c16.449219 0 29.832031-13.382812 29.832031-29.832031v-2.746094c0-16.449219-13.382812-29.832031-29.832031-29.832031zm-62.632812 332.601562c-.792969-.203124-1.621094-.324218-2.476563-.324218h-112.824219c-5.523437 0-10 4.480468-10 10 0 5.523437 4.476563 10 10 10h112.246094l-13.445312 86.648437h-195.527344l-13.445313-86.648437h31.765625c5.519532 0 10-4.476563 10-10 0-5.519532-4.480468-10-10-10h-33.324218c-.519532 0-1.027344.054687-1.523438.128906l-26.226562-169.015625h281.039062zm-261.363282-211.625h294.203125l-3.480469 22.414063h-287.246093zm57.570313 371.023438-5.132813-33.074219h189.324219l-5.132813 33.074219zm239.734375-391.023438h-300.410156l-5.984376-38.566406h312.378907zm36.523437-68.398437c0 5.421875-4.410156 9.832031-9.832031 9.832031h-353.789062c-5.425782 0-9.835938-4.410156-9.835938-9.832031v-2.746094c0-5.421875 4.410156-9.832031 9.835938-9.832031h353.789062c5.421875 0 9.832031 4.410156 9.832031 9.832031zm0 0"/><path d="m175.71875 338.449219c-1.605469-3.851563-5.554688-6.382813-9.734375-6.152344-4.046875.222656-7.660156 2.925781-8.964844 6.769531-1.355469 3.992188.003907 8.535156 3.34375 11.113282 3.28125 2.535156 7.878907 2.765624 11.402344.585937 4.121094-2.550781 5.785156-7.847656 3.953125-12.316406zm0 0"/></svg>